<svg xmlns="http://www.w3.org/2000/svg" width="56" height="56" viewBox="0 0 56 56">
  <g id="Group_34" data-name="Group 34" transform="translate(-0.076)">
    <g id="Rectangle_48" data-name="Rectangle 48" transform="translate(0.076)" fill="#fff" stroke="#707070" stroke-width="1" opacity="0">
      <rect width="56" height="56" stroke="none"/>
      <rect x="0.5" y="0.5" width="55" height="55" fill="none"/>
    </g>
    <g id="world-svgrepo-com_1_" data-name="world-svgrepo-com (1)" transform="translate(5.499 5.512)">
      <g id="Group_33" data-name="Group 33" transform="translate(0)">
        <path id="Path_62" data-name="Path 62" d="M35,8.608l-.671.213-3.572.319L29.75,10.757l-.732-.233L26.176,7.952l-.412-1.337-.552-1.426L23.424,3.582l-2.108-.414-.049.968,2.065,2.021,1.01,1.194-1.136.6-.925-.273L20.9,7.093l.047-1.121-1.818-.75-.6,2.636-1.832.417.181,1.47,2.387.461.412-2.349,1.971.292.916.538h1.47l1.006,2.021L27.7,13.423l-.2,1.055L25.355,14.2l-3.716,1.883L18.963,19.3l-.348,1.426h-.96l-1.79-.827-1.738.827.432,1.84.756-.875,1.33-.042-.093,1.652,1.1.324,1.1,1.24,1.8-.507,2.052.325,2.383.643,1.19.14,2.018,2.3,3.894,2.3-2.519,4.827-2.659,1.24L25.9,38.892l-3.847,2.577-.41,1.486A22.487,22.487,0,0,0,35,8.608Z" transform="translate(6.027 1.367)" fill="#f8aa5b"/>
        <path id="Path_63" data-name="Path 63" d="M24.993,30.989l-1.633-3.036,1.5-3.132-1.5-.45-1.682-1.7-3.727-.839-1.237-2.6v1.542h-.545l-3.212-4.369V12.823L10.6,8.982l-3.739.669H4.344L3.076,8.818,4.693,7.532l-1.613.374A22.47,22.47,0,0,0,22.416,41.724a23.393,23.393,0,0,0,2.813-.2L24.994,38.8s1.029-4.046,1.029-4.183S24.993,30.989,24.993,30.989Z" transform="translate(-0.004 3.251)" fill="#f8aa5b"/>
        <path id="Path_64" data-name="Path 64" d="M6.8,7.251l3.981-.557,1.835-1.009,2.065.6,3.3-.183,1.13-1.782,1.648.272,4-.377,1.1-1.22L27.419,1.95l2.2.332.8-.122A22.291,22.291,0,0,0,3.6,8.176h.011Zm15.03-5.015L24.117.972l1.47.852L23.459,3.449l-2.032.2-.915-.6Zm-6.78.185,1.01.422,1.323-.422L18.1,3.673l-3.054.8L13.58,3.616S15.015,2.689,15.048,2.421Z" transform="translate(1.53)" fill="#f8aa5b"/>
      </g>
    </g>
  </g>
</svg>
