<svg xmlns="http://www.w3.org/2000/svg" width="64" height="64" viewBox="0 0 64 64">
  <g id="Group_29" data-name="Group 29" transform="translate(8755 1653)">
    <g id="Rectangle_32" data-name="Rectangle 32" transform="translate(-8755 -1653)" fill="#fff" stroke="#707070" stroke-width="1" opacity="0">
      <rect width="64" height="64" stroke="none"/>
      <rect x="0.5" y="0.5" width="63" height="63" fill="none"/>
    </g>
    <path id="Icon_simple-amazonaws" data-name="Icon simple-amazonaws" d="M15.65,19.3a5.556,5.556,0,0,0,.2,1.643,9.908,9.908,0,0,0,.592,1.333.792.792,0,0,1,.13.423.733.733,0,0,1-.352.555l-1.164.775a.886.886,0,0,1-.481.167.842.842,0,0,1-.553-.259,5.715,5.715,0,0,1-.664-.868q-.31-.532-.574-1.09a6.823,6.823,0,0,1-5.431,2.548A5.06,5.06,0,0,1,3.663,23.2,4.749,4.749,0,0,1,2.3,19.648a4.75,4.75,0,0,1,1.68-3.8A6.718,6.718,0,0,1,8.5,14.4a14.562,14.562,0,0,1,1.958.148c.685.093,1.388.241,2.124.407V13.609a4.083,4.083,0,0,0-.868-2.955A4.239,4.239,0,0,0,8.708,9.8a8.384,8.384,0,0,0-2,.238,14.687,14.687,0,0,0-1.995.629,5.292,5.292,0,0,1-.648.241,1.129,1.129,0,0,1-.294.053c-.259,0-.389-.185-.389-.572v-.9a1.171,1.171,0,0,1,.13-.648,1.381,1.381,0,0,1,.518-.386,10.591,10.591,0,0,1,2.326-.833,11.2,11.2,0,0,1,2.883-.349,6.747,6.747,0,0,1,4.839,1.5,6.105,6.105,0,0,1,1.532,4.542V19.3Zm-7.5,2.809a5.983,5.983,0,0,0,1.9-.333,4.121,4.121,0,0,0,1.754-1.18,2.938,2.938,0,0,0,.629-1.185,6.722,6.722,0,0,0,.185-1.606v-.775a15.41,15.41,0,0,0-1.7-.315A13.93,13.93,0,0,0,9.187,16.6a4.258,4.258,0,0,0-2.754.74,2.57,2.57,0,0,0-.9,2.122,2.572,2.572,0,0,0,.683,1.958,2.553,2.553,0,0,0,1.939.685ZM22.985,24.1a1.033,1.033,0,0,1-.7-.185,1.511,1.511,0,0,1-.389-.72L17.554,8.916a3.235,3.235,0,0,1-.167-.74.405.405,0,0,1,.442-.463h1.812a1.024,1.024,0,0,1,.717.185,1.475,1.475,0,0,1,.37.722l3.105,12.227L26.715,8.62a1.315,1.315,0,0,1,.349-.722,1.27,1.27,0,0,1,.74-.185h1.476a1.127,1.127,0,0,1,.74.185,1.247,1.247,0,0,1,.349.722l2.918,12.375,3.2-12.375a1.587,1.587,0,0,1,.37-.722,1.2,1.2,0,0,1,.72-.185h1.719a.413.413,0,0,1,.463.463,1.868,1.868,0,0,1-.039.3,2.632,2.632,0,0,1-.13.463l-4.45,14.277a1.41,1.41,0,0,1-.389.72,1.18,1.18,0,0,1-.7.185h-1.59a1.122,1.122,0,0,1-.74-.185,1.313,1.313,0,0,1-.347-.74L28.506,11.279,25.66,23.172a1.465,1.465,0,0,1-.347.74,1.156,1.156,0,0,1-.74.185Zm23.732.5a12.314,12.314,0,0,1-2.844-.331,8.41,8.41,0,0,1-2.124-.74,1.059,1.059,0,0,1-.683-1.034V21.55c0-.386.148-.572.423-.572a1.048,1.048,0,0,1,.333.056c.111.037.278.111.463.185a9.976,9.976,0,0,0,2.032.646,11.054,11.054,0,0,0,2.2.222,4.974,4.974,0,0,0,2.7-.611,1.99,1.99,0,0,0,.96-1.754,1.8,1.8,0,0,0-.5-1.294,4.68,4.68,0,0,0-1.867-.96l-2.677-.833a5.618,5.618,0,0,1-2.955-1.881,4.4,4.4,0,0,1-.926-2.68,4.133,4.133,0,0,1,.5-2.05A4.737,4.737,0,0,1,43.08,8.511,5.8,5.8,0,0,1,45,7.551a8.048,8.048,0,0,1,2.328-.315,9.282,9.282,0,0,1,1.238.074c.423.056.81.13,1.2.2.37.093.722.185,1.053.294a4.04,4.04,0,0,1,.778.333,1.6,1.6,0,0,1,.555.463,1,1,0,0,1,.164.609v.868c0,.389-.148.592-.426.592a1.921,1.921,0,0,1-.7-.222,8.451,8.451,0,0,0-3.545-.72,4.761,4.761,0,0,0-2.457.516,1.781,1.781,0,0,0-.868,1.643,1.74,1.74,0,0,0,.555,1.312A5.486,5.486,0,0,0,46.9,14.22l2.624.828a5.63,5.63,0,0,1,2.862,1.775,4.181,4.181,0,0,1,.849,2.585,4.769,4.769,0,0,1-.479,2.143,4.992,4.992,0,0,1-1.349,1.627,5.961,5.961,0,0,1-2.05,1.034,8.845,8.845,0,0,1-2.643.386Zm3.492,8.978c-6.077,4.489-14.907,6.87-22.5,6.87A40.7,40.7,0,0,1,.245,29.973c-.572-.516-.056-1.219.629-.812a55.4,55.4,0,0,0,27.483,7.3,54.859,54.859,0,0,0,20.965-4.285C50.339,31.709,51.206,32.836,50.209,33.576Zm2.531-2.883c-.778-1-5.137-.479-7.113-.238-.59.074-.683-.444-.146-.833,3.471-2.437,9.18-1.735,9.844-.923.664.833-.185,6.539-3.436,9.272-.5.426-.979.2-.757-.349.74-1.828,2.383-5.947,1.608-6.928Z" transform="translate(-8750.768 -1644.841)" fill="#989898"/>
  </g>
</svg>
