<svg xmlns="http://www.w3.org/2000/svg" width="56" height="56" viewBox="0 0 56 56">
  <g id="Group_38" data-name="Group 38" transform="translate(-0.076)">
    <g id="Rectangle_48" data-name="Rectangle 48" transform="translate(0.076)" fill="#fff" stroke="#707070" stroke-width="1" opacity="0">
      <rect width="56" height="56" stroke="none"/>
      <rect x="0.5" y="0.5" width="55" height="55" fill="none"/>
    </g>
    <g id="_-Product-Icons" data-name="ðŸ”-Product-Icons" transform="translate(2.415 9.165)">
      <g id="ic_fluent_live_24_filled" transform="translate(0)">
        <path id="_-Color" data-name="ðŸŽ¨-Color" d="M13.071,5.395a2.563,2.563,0,0,1,0,3.616,20.509,20.509,0,0,0,0,28.939,2.553,2.553,0,0,1-3.6,3.616,25.635,25.635,0,0,1,0-36.171A2.543,2.543,0,0,1,13.071,5.395Zm32.452,0a25.635,25.635,0,0,1,0,36.171,2.553,2.553,0,0,1-3.6-3.616,20.509,20.509,0,0,0,0-28.939,2.553,2.553,0,0,1,3.6-3.616Zm-24.89,7.347a2.563,2.563,0,0,1,0,3.616,10.047,10.047,0,0,0,0,14.176,2.553,2.553,0,1,1-3.6,3.616,15.172,15.172,0,0,1,0-21.409A2.543,2.543,0,0,1,20.633,12.742Zm17.736,0a15.172,15.172,0,0,1,0,21.409,2.553,2.553,0,0,1-3.6-3.616,10.047,10.047,0,0,0,0-14.176,2.553,2.553,0,0,1,3.6-3.616ZM27.7,19.824a3.836,3.836,0,1,1-3.823,3.836A3.829,3.829,0,0,1,27.7,19.824Z" transform="translate(-1.999 -4.646)" fill="#f8aa5b"/>
      </g>
    </g>
  </g>
</svg>
