<svg xmlns="http://www.w3.org/2000/svg" width="56" height="56" viewBox="0 0 56 56">
  <g id="Group_37" data-name="Group 37" transform="translate(-0.102)">
    <g id="Rectangle_48" data-name="Rectangle 48" transform="translate(0.102)" fill="#fff" stroke="#707070" stroke-width="1" opacity="0">
      <rect width="56" height="56" stroke="none"/>
      <rect x="0.5" y="0.5" width="55" height="55" fill="none"/>
    </g>
    <path id="Icon_metro-tools" data-name="Icon metro-tools" d="M48.717,12.642a11.137,11.137,0,0,1-2.4,12.119,11.022,11.022,0,0,1-13.259,1.781l-3.055,3.347,2.18,2.2,1.3-1.307a1.7,1.7,0,0,1,2.411,0L46.464,41.482a1.712,1.712,0,0,1,0,2.418l-4.822,4.837a1.7,1.7,0,0,1-2.411,0L28.668,38.032a1.712,1.712,0,0,1,0-2.418l1.19-1.194L27.78,32.331,13.171,48.342a3.4,3.4,0,0,1-4.822,0L7.144,47.133a3.427,3.427,0,0,1,0-4.837L23.787,28.313,12.734,17.195l-3.491,0L5.2,10.676,8.454,7.409,15.1,11.488l.043,3.429L26.323,26.179l3.253-2.732a11.079,11.079,0,0,1,13.1-16.839l-7.163,7.086,6.029,6.048,7.177-7.1ZM11.143,44a1.708,1.708,0,1,0,0,2.42A1.7,1.7,0,0,0,11.143,44Z" transform="translate(0.529 0.435)" fill="#f8aa5b"/>
  </g>
</svg>
