<svg xmlns="http://www.w3.org/2000/svg" width="56" height="56" viewBox="0 0 56 56">
  <g id="Group_35" data-name="Group 35" transform="translate(-0.102)">
    <g id="Rectangle_48" data-name="Rectangle 48" transform="translate(0.102)" fill="#fff" stroke="#707070" stroke-width="1" opacity="0">
      <rect width="56" height="56" stroke="none"/>
      <rect x="0.5" y="0.5" width="55" height="55" fill="none"/>
    </g>
    <g id="Icon_ionic-ios-megaphone" data-name="Icon ionic-ios-megaphone" transform="translate(6.19 6.22)">
      <path id="Path_65" data-name="Path 65" d="M7.773,16.069a9.624,9.624,0,0,1,4.54-8.262.339.339,0,0,0-.177-.628h0c-3.987,0-7.15,3.183-7.734,7.309a1.487,1.487,0,0,0-1.033,1.56A1.427,1.427,0,0,0,4.5,17.6a9.227,9.227,0,0,0,6.388,6.754h0a.456.456,0,0,0,.4-.785A10.447,10.447,0,0,1,7.773,16.069Z" transform="translate(-3.368 -1.514)" fill="#f8aa5b"/>
      <path id="Path_66" data-name="Path 66" d="M43.023,9.113c-.1-.283-.219-.544-.334-.806a10.744,10.744,0,0,0-2.265-3.372,5.143,5.143,0,0,0-3.632-1.56,4.761,4.761,0,0,0-2.693.817C29.6,6.9,22.376,9.008,18.024,9.008s-4.113.021-4.113.021a9.833,9.833,0,0,0-1.086,17.277c1.263,1.058,2.463.921,2.2,2.325S12.68,38.841,12.419,40.673s-.3,2.88.418,3.77,5.167,2.492,7.1,2.492,1.44-.911,1.44-4.586S20.4,28.558,23.1,28.558c5.041,0,7.672,1.812,11.617,3.319a5.579,5.579,0,0,0,2.1.492c.626,0,1.952-.2,3.622-1.906A10.852,10.852,0,0,0,42.7,27.092c.115-.272.23-.544.344-.838a24.522,24.522,0,0,0,1.43-8.576A24.536,24.536,0,0,0,43.023,9.113Zm-2.776,16.44c-.668,1.644-1.837,2.953-2.808,2.953S35.58,27.2,34.912,25.553a21.654,21.654,0,0,1-1.284-7.822,21.736,21.736,0,0,1,1.284-7.843c.668-1.633,1.555-2.618,2.516-2.618s2.119.995,2.8,2.618a21.159,21.159,0,0,1,.021,15.665Z" transform="translate(-1.031 -3.375)" fill="#f8aa5b"/>
    </g>
  </g>
</svg>
