<svg xmlns="http://www.w3.org/2000/svg" xmlns:xlink="http://www.w3.org/1999/xlink" width="196.5" height="56.331" viewBox="0 0 196.5 56.331">
  <defs>
    <linearGradient id="linear-gradient" x1="0.93" y1="0.712" x2="0.128" y2="0.179" gradientUnits="objectBoundingBox">
      <stop offset="0" stop-color="#29bec6"/>
      <stop offset="0.471" stop-color="#1495be"/>
      <stop offset="0.992" stop-color="#006db7"/>
    </linearGradient>
    <linearGradient id="linear-gradient-2" x1="0.117" y1="0.002" x2="0.981" y2="1.029" xlink:href="#linear-gradient"/>
    <linearGradient id="linear-gradient-3" y1="0.5" x2="1" y2="0.5" gradientUnits="objectBoundingBox">
      <stop offset="0" stop-color="#29bec6"/>
      <stop offset="0.483" stop-color="#1493bc"/>
      <stop offset="0.994" stop-color="#006bb4"/>
    </linearGradient>
    <clipPath id="clip-path">
      <path id="Path_7" data-name="Path 7" d="M-1426.1,79.842c0,6.25-2.885,14.8-15.73,14.8-10.44,0-16.9-6.315-16.9-17.3s6.594-17.236,17.035-17.236c8.243,0,14.768,4.671,15.73,11.775h-8.243a7.366,7.366,0,0,0-7.487-5.46c-5.289,0-8.586,4.013-8.586,10.92,0,6.973,3.228,10.986,8.518,10.986s7.075-3.224,7.281-6.776h-6.526V75.83h14.905Z" transform="translate(1458.731 -60.107)" fill="none"/>
    </clipPath>
    <linearGradient id="linear-gradient-4" y1="0.5" x2="1" y2="0.5" gradientUnits="objectBoundingBox">
      <stop offset="0" stop-color="#31bfc7"/>
      <stop offset="0.112" stop-color="#2ab4c4"/>
      <stop offset="0.464" stop-color="#1898bf"/>
      <stop offset="0.772" stop-color="#0d87bc"/>
      <stop offset="1" stop-color="#0a81bb"/>
    </linearGradient>
    <clipPath id="clip-path-2">
      <path id="Path_8" data-name="Path 8" d="M-1338.915,94.585l-2.222-7.2h-12.386l-2.221,7.2h-8.616l11.847-34.532h10.366l11.847,34.532Zm-3.837-12.991-4.51-14.405h-.2l-4.443,14.405Z" transform="translate(1364.36 -60.053)" fill="none"/>
    </clipPath>
    <linearGradient id="linear-gradient-5" y1="0.5" x2="1" y2="0.5" gradientUnits="objectBoundingBox">
      <stop offset="0" stop-color="#31bfc7"/>
      <stop offset="1" stop-color="#0a81bb"/>
    </linearGradient>
    <clipPath id="clip-path-3">
      <path id="Path_9" data-name="Path 9" d="M-1236.233,70.42c0,6.462-4.241,10.366-11.04,10.366h-7.2v13.8h-8.078V60.053h15.28C-1240.474,60.053-1236.233,63.957-1236.233,70.42Zm-7.539,0c0-3.1-2.222-4.174-5.991-4.174h-4.712V74.66h5.587C-1245.657,74.66-1243.772,73.179-1243.772,70.42Z" transform="translate(1262.553 -60.053)" fill="none"/>
    </clipPath>
    <clipPath id="clip-path-4">
      <path id="Path_10" data-name="Path 10" d="M-1152.349,70.42c0,6.462-4.241,10.366-11.04,10.366h-7.2v13.8h-8.078V60.053h15.28C-1156.59,60.053-1152.349,63.957-1152.349,70.42Zm-7.539,0c0-3.1-2.222-4.174-5.991-4.174h-4.712V74.66H-1165C-1161.773,74.66-1159.888,73.179-1159.888,70.42Z" transform="translate(1178.669 -60.053)" fill="none"/>
    </clipPath>
  </defs>
  <g id="Group_1" data-name="Group 1" transform="translate(1458.731 -30.126)">
    <g id="Group_1-2" data-name="Group 1" transform="translate(-1323.834 30.126)">
      <path id="Path_1" data-name="Path 1" d="M-1071.4,36.119l-.037.013-2.485,1.66,3.022,1.646a1.544,1.544,0,0,0,1.671-.126c1.049-.794,2.974-2.043,4.461-1.82C-1066.9,36.44-1069.633,35.444-1071.4,36.119Z" transform="translate(1074.892 -33.861)" fill="#31bfc7"/>
      <path id="Path_2" data-name="Path 2" d="M-1060.222,33.759l.021.01a14.9,14.9,0,0,1,2.01,1.212,2.329,2.329,0,0,0,2.32.223l3.37-1.538c-7.107-7.145-14.391-1.268-14.391-1.268h0l.037-.013C-1065.084,31.709-1062.352,32.705-1060.222,33.759Z" transform="translate(1070.344 -30.126)" fill="url(#linear-gradient)"/>
      <path id="Path_3" data-name="Path 3" d="M-1060.4,65.993a1.544,1.544,0,0,0-.917-1.4c-1.2-.534-3.221-1.615-3.747-3.022.107,2.373.555,5.243,2,6.465l.032.028h0l2.654,1.373Z" transform="translate(1069.158 -50.467)" fill="#31bfc7"/>
      <path id="Path_4" data-name="Path 4" d="M-1070.569,58.15c-1.445-1.222-1.893-4.092-2-6.465v-.028a29.772,29.772,0,0,1,.063-3.625l-4.007-1.741c-1.278,9.054,5.841,11.835,5.973,11.886h0Z" transform="translate(1076.667 -40.583)" fill="url(#linear-gradient-2)"/>
      <path id="Path_5" data-name="Path 5" d="M-1039.813,51.066c0-.013.009-.027.012-.04v.02l.016-.26a1.659,1.659,0,0,0-2.335-1.614l-.638.286a1.546,1.546,0,0,0-.278.162L-1048.21,52a.609.609,0,0,0-.341.68.624.624,0,0,0,.618.482h4.07a4.474,4.474,0,0,1-1.046,2.345C-1042.784,54.451-1040.345,52.88-1039.813,51.066Z" transform="translate(1058.487 -42.352)" fill="#31bfc7"/>
      <path id="Path_6" data-name="Path 6" d="M-1039.28,54.692c0,.013-.008.027-.012.04-.532,1.814-2.971,3.385-5.1,4.444l-.03.015a29.784,29.784,0,0,1-3.34,1.41l.031,4.368c8.615-2.446,8.466-9.822,8.45-10.257Z" transform="translate(1057.966 -46.018)" fill="url(#linear-gradient-3)"/>
    </g>
    <g id="Group_10" data-name="Group 10" transform="translate(-1458.731 40.692)">
      <g id="Group_3" data-name="Group 3" transform="translate(0 0.019)">
        <g id="Group_2" data-name="Group 2" clip-path="url(#clip-path)">
          <rect id="Rectangle_2" data-name="Rectangle 2" width="131.242" height="50.451" transform="translate(-4.268 -10.907)" fill="url(#linear-gradient-4)"/>
        </g>
      </g>
      <g id="Group_5" data-name="Group 5" transform="translate(33.32)">
        <g id="Group_4" data-name="Group 4" clip-path="url(#clip-path-2)">
          <rect id="Rectangle_3" data-name="Rectangle 3" width="131.242" height="50.451" transform="translate(-37.588 -10.888)" fill="url(#linear-gradient-5)"/>
        </g>
      </g>
      <g id="Group_7" data-name="Group 7" transform="translate(69.265)">
        <g id="Group_6" data-name="Group 6" clip-path="url(#clip-path-3)">
          <rect id="Rectangle_4" data-name="Rectangle 4" width="131.242" height="50.451" transform="translate(-73.533 -10.888)" fill="url(#linear-gradient-5)"/>
        </g>
      </g>
      <g id="Group_9" data-name="Group 9" transform="translate(98.883)">
        <g id="Group_8" data-name="Group 8" clip-path="url(#clip-path-4)">
          <rect id="Rectangle_5" data-name="Rectangle 5" width="131.242" height="50.451" transform="translate(-103.15 -10.888)" fill="url(#linear-gradient-5)"/>
        </g>
      </g>
    </g>
    <g id="Group_11" data-name="Group 11" transform="translate(-1420.328 82.086)">
      <path id="Path_11" data-name="Path 11" d="M-1347.751,179.54a1,1,0,0,1,.991,1.041c0,.716-.566,1.123-1.473,1.123h-1.731v-4.27h1.473c.932,0,1.524.333,1.524,1.04a.987.987,0,0,1-.783,1.049Zm-.716-.183a.769.769,0,0,0,.874-.749c0-.424-.333-.691-.882-.691h-.874v1.44Zm.083,1.865c.632,0,.982-.233.982-.716s-.375-.724-1.016-.724h-.932v1.44Z" transform="translate(1349.965 -177.384)" fill="#fff"/>
      <path id="Path_12" data-name="Path 12" d="M-1336.079,181.121v.491h-2.9v-.366c.316-.324,1.066-1.066,1.524-1.54.6-.608.757-.849.757-1.157a.759.759,0,0,0-.849-.766.817.817,0,0,0-.891.874H-1339a1.319,1.319,0,0,1,1.457-1.365c.924,0,1.432.533,1.432,1.215,0,.5-.2.8-.9,1.5l-1.091,1.1v.017Z" transform="translate(1342.872 -177.292)" fill="#fff"/>
      <path id="Path_13" data-name="Path 13" d="M-1326.318,179.54a1,1,0,0,1,.99,1.041c0,.716-.566,1.123-1.473,1.123h-1.731v-4.27h1.473c.932,0,1.523.333,1.523,1.04a.987.987,0,0,1-.782,1.049Zm-.716-.183a.769.769,0,0,0,.874-.749c0-.424-.333-.691-.883-.691h-.874v1.44Zm.083,1.865c.633,0,.982-.233.982-.716s-.375-.724-1.016-.724h-.932v1.44Z" transform="translate(1336.1 -177.384)" fill="#fff"/>
      <path id="Path_14" data-name="Path 14" d="M-1306.861,177.434v4.27h-.608v-3.288h-.017l-1.34,3.288h-.358l-1.357-3.288h-.017V181.7h-.6v-4.27h.783l1.357,3.371h.017l1.34-3.371Z" transform="translate(1324.859 -177.384)" fill="#fff"/>
      <path id="Path_15" data-name="Path 15" d="M-1294.26,181.7l-.366-1.049h-1.831l-.366,1.049h-.657l1.565-4.27h.758l1.565,4.27Zm-.508-1.515-.766-2.156h-.017l-.766,2.156Z" transform="translate(1316.012 -177.384)" fill="#fff"/>
      <path id="Path_16" data-name="Path 16" d="M-1282.465,181.7l-1.049-1.865h-.832V181.7h-.616v-4.27h1.706c.841,0,1.349.408,1.349,1.2a1.053,1.053,0,0,1-1,1.132l1.107,1.939Zm-1.881-2.347h.966c.566,0,.882-.225.882-.724s-.316-.708-.882-.708h-.966Z" transform="translate(1307.913 -177.384)" fill="#fff"/>
      <path id="Path_17" data-name="Path 17" d="M-1270.485,181.7h-.682s-.758-1.265-1.032-1.69a.805.805,0,0,0-.566-.391l-.466.449V181.7h-.625v-4.27h.625v1.9l1.931-1.9h.749l-1.856,1.823a1.037,1.037,0,0,1,.716.458Z" transform="translate(1300.729 -177.384)" fill="#fff"/>
      <path id="Path_18" data-name="Path 18" d="M-1261.915,177.925v1.407h1.906v.483h-1.906v1.407h2.223v.483h-2.847v-4.27h2.847v.491Z" transform="translate(1293.407 -177.384)" fill="#fff"/>
      <path id="Path_19" data-name="Path 19" d="M-1249.7,177.925h-1.315V181.7h-.616v-3.779h-1.315v-.491h3.246Z" transform="translate(1287.199 -177.384)" fill="#fff"/>
      <path id="Path_20" data-name="Path 20" d="M-1239.168,178.633c0,.782-.508,1.207-1.348,1.207h-.966V181.7h-.616v-4.27h1.59C-1239.676,177.434-1239.168,177.842-1239.168,178.633Zm-.583,0c0-.525-.341-.708-.941-.708h-.791v1.432h.849C-1240.075,179.357-1239.75,179.132-1239.75,178.633Z" transform="translate(1280.183 -177.384)" fill="#fff"/>
      <path id="Path_21" data-name="Path 21" d="M-1231.7,177.434h.616v3.787h2.056v.483h-2.672Z" transform="translate(1273.456 -177.384)" fill="#fff"/>
      <path id="Path_22" data-name="Path 22" d="M-1219.968,181.7l-.366-1.049h-1.831l-.366,1.049h-.658l1.565-4.27h.758l1.565,4.27Zm-.508-1.515-.766-2.156h-.017l-.766,2.156Z" transform="translate(1267.95 -177.384)" fill="#fff"/>
      <path id="Path_23" data-name="Path 23" d="M-1207.85,180.347h.625a1.622,1.622,0,0,1-1.74,1.315c-1.215,0-1.939-.824-1.939-2.2a1.9,1.9,0,0,1,1.939-2.173,1.684,1.684,0,0,1,1.74,1.365h-.625a1.114,1.114,0,0,0-1.115-.849c-.824,0-1.315.616-1.315,1.657,0,1.057.491,1.69,1.315,1.69A1.066,1.066,0,0,0-1207.85,180.347Z" transform="translate(1260.003 -177.292)" fill="#fff"/>
      <path id="Path_24" data-name="Path 24" d="M-1197.832,177.925v1.407h1.906v.483h-1.906v1.407h2.223v.483h-2.847v-4.27h2.847v.491Z" transform="translate(1251.95 -177.384)" fill="#fff"/>
      <path id="Path_25" data-name="Path 25" d="M-1178.679,179.689a2.487,2.487,0,0,1-.391,1.132l.8.791h-.657l-.491-.466a1.943,1.943,0,0,1-1.365.516c-.866,0-1.332-.441-1.332-1.132a1.3,1.3,0,0,1,.957-1.232,1.4,1.4,0,0,1-.557-1.049,1,1,0,0,1,1.107-.957.975.975,0,0,1,1.082.966c0,.416-.25.782-.9,1.124l.982,1.057a2.166,2.166,0,0,0,.266-.749Zm-1.1,1.116-1.082-1.174-.233.125a.8.8,0,0,0-.458.749.73.73,0,0,0,.824.724A1.315,1.315,0,0,0-1179.778,180.805Zm-.949-1.731c.508-.25.7-.508.7-.8a.549.549,0,0,0-.583-.558.567.567,0,0,0-.591.566C-1181.2,178.491-1181.118,178.691-1180.727,179.074Z" transform="translate(1241.38 -177.292)" fill="#fff"/>
      <path id="Path_26" data-name="Path 26" d="M-1161.159,179.54a1,1,0,0,1,.991,1.041c0,.716-.566,1.123-1.473,1.123h-1.732v-4.27h1.473c.932,0,1.523.333,1.523,1.04a.987.987,0,0,1-.782,1.049Zm-.716-.183a.769.769,0,0,0,.874-.749c0-.424-.333-.691-.882-.691h-.874v1.44Zm.083,1.865c.633,0,.982-.233.982-.716s-.375-.724-1.015-.724h-.932v1.44Z" transform="translate(1229.254 -177.384)" fill="#fff"/>
      <path id="Path_27" data-name="Path 27" d="M-1151.511,180.139a1,1,0,0,0,1.074,1.091,1,1,0,0,0,1.082-1.091v-2.705h.616V180.2a1.523,1.523,0,0,1-1.7,1.557,1.52,1.52,0,0,1-1.69-1.557v-2.764h.616Z" transform="translate(1221.978 -177.384)" fill="#fff"/>
      <path id="Path_28" data-name="Path 28" d="M-1138.475,179.257c.882.183,1.274.516,1.274,1.14,0,.774-.633,1.265-1.623,1.265-.957,0-1.6-.5-1.632-1.257h.591a.96.96,0,0,0,1.057.766c.591,0,.966-.283.966-.716,0-.366-.241-.558-.882-.7l-.449-.091c-.833-.183-1.224-.541-1.224-1.14,0-.733.674-1.232,1.532-1.232a1.39,1.39,0,0,1,1.573,1.307h-.608a.866.866,0,0,0-.957-.807c-.533,0-.916.283-.916.691,0,.358.25.549.849.674Z" transform="translate(1214.428 -177.292)" fill="#fff"/>
      <path id="Path_29" data-name="Path 29" d="M-1129.045,177.434h.616v4.27h-.616Z" transform="translate(1207.046 -177.384)" fill="#fff"/>
      <path id="Path_30" data-name="Path 30" d="M-1121.346,177.434v4.27h-.558l-2.273-3.271h-.017V181.7h-.608v-4.27h.558l2.264,3.247h.017v-3.247Z" transform="translate(1204.301 -177.384)" fill="#fff"/>
      <path id="Path_31" data-name="Path 31" d="M-1112.011,177.925v1.407h1.906v.483h-1.906v1.407h2.223v.483h-2.847v-4.27h2.847v.491Z" transform="translate(1196.43 -177.384)" fill="#fff"/>
      <path id="Path_32" data-name="Path 32" d="M-1100.633,179.257c.883.183,1.274.516,1.274,1.14,0,.774-.633,1.265-1.623,1.265-.958,0-1.6-.5-1.632-1.257h.591a.961.961,0,0,0,1.057.766c.591,0,.966-.283.966-.716,0-.366-.241-.558-.883-.7l-.449-.091c-.832-.183-1.224-.541-1.224-1.14,0-.733.674-1.232,1.532-1.232a1.39,1.39,0,0,1,1.573,1.307h-.608a.866.866,0,0,0-.957-.807c-.533,0-.916.283-.916.691,0,.358.25.549.849.674Z" transform="translate(1189.947 -177.292)" fill="#fff"/>
      <path id="Path_33" data-name="Path 33" d="M-1089.646,179.257c.882.183,1.274.516,1.274,1.14,0,.774-.633,1.265-1.623,1.265-.958,0-1.6-.5-1.632-1.257h.591a.96.96,0,0,0,1.057.766c.591,0,.966-.283.966-.716,0-.366-.241-.558-.883-.7l-.449-.091c-.832-.183-1.224-.541-1.224-1.14,0-.733.674-1.232,1.532-1.232a1.39,1.39,0,0,1,1.573,1.307h-.608a.866.866,0,0,0-.957-.807c-.532,0-.916.283-.916.691,0,.358.25.549.849.674Z" transform="translate(1182.839 -177.292)" fill="#fff"/>
      <path id="Path_34" data-name="Path 34" d="M-1072.529,179.257c.882.183,1.274.516,1.274,1.14,0,.774-.633,1.265-1.623,1.265-.958,0-1.6-.5-1.632-1.257h.591a.961.961,0,0,0,1.057.766c.591,0,.966-.283.966-.716,0-.366-.241-.558-.883-.7l-.449-.091c-.832-.183-1.223-.541-1.223-1.14,0-.733.674-1.232,1.532-1.232a1.39,1.39,0,0,1,1.573,1.307h-.608a.866.866,0,0,0-.957-.807c-.532,0-.916.283-.916.691,0,.358.25.549.849.674Z" transform="translate(1171.766 -177.292)" fill="#fff"/>
      <path id="Path_35" data-name="Path 35" d="M-1059.616,179.473a1.931,1.931,0,0,1-1.973,2.189,1.929,1.929,0,0,1-1.981-2.189,1.934,1.934,0,0,1,1.981-2.181A1.937,1.937,0,0,1-1059.616,179.473Zm-.641,0c0-1.032-.508-1.648-1.332-1.648-.841,0-1.34.616-1.34,1.648s.5,1.673,1.34,1.673C-1060.765,181.146-1060.257,180.513-1060.257,179.473Z" transform="translate(1164.688 -177.292)" fill="#fff"/>
      <path id="Path_36" data-name="Path 36" d="M-1050.343,177.434h.616v3.787h2.056v.483h-2.672Z" transform="translate(1156.132 -177.384)" fill="#fff"/>
      <path id="Path_37" data-name="Path 37" d="M-1040.343,180.139a1,1,0,0,0,1.074,1.091,1,1,0,0,0,1.083-1.091v-2.705h.616V180.2a1.523,1.523,0,0,1-1.7,1.557,1.52,1.52,0,0,1-1.689-1.557v-2.764h.616Z" transform="translate(1150.061 -177.384)" fill="#fff"/>
      <path id="Path_38" data-name="Path 38" d="M-1026.468,177.925h-1.315V181.7h-.616v-3.779h-1.316v-.491h3.246Z" transform="translate(1142.786 -177.384)" fill="#fff"/>
      <path id="Path_39" data-name="Path 39" d="M-1018.75,177.434h.616v4.27h-.616Z" transform="translate(1135.693 -177.384)" fill="#fff"/>
      <path id="Path_40" data-name="Path 40" d="M-1010.905,179.473a1.931,1.931,0,0,1-1.973,2.189,1.929,1.929,0,0,1-1.981-2.189,1.934,1.934,0,0,1,1.981-2.181A1.936,1.936,0,0,1-1010.905,179.473Zm-.641,0c0-1.032-.508-1.648-1.332-1.648-.841,0-1.34.616-1.34,1.648s.5,1.673,1.34,1.673C-1012.054,181.146-1011.546,180.513-1011.546,179.473Z" transform="translate(1133.176 -177.292)" fill="#fff"/>
      <path id="Path_41" data-name="Path 41" d="M-998.177,177.434v4.27h-.558l-2.272-3.271h-.017V181.7h-.608v-4.27h.557l2.264,3.247h.017v-3.247Z" transform="translate(1124.619 -177.384)" fill="#fff"/>
    </g>
    <g id="Group_12" data-name="Group 12" transform="translate(-1323.985 60.143)">
      <path id="Path_42" data-name="Path 42" d="M-1070.858,116.2a5.067,5.067,0,0,0-2.092.419,4.423,4.423,0,0,0-1.594,1.2,5.366,5.366,0,0,0-1.007,1.893,8.41,8.41,0,0,0-.348,2.511,8.86,8.86,0,0,0,.348,2.581,5.441,5.441,0,0,0,1.007,1.933,4.5,4.5,0,0,0,1.584,1.216,4.9,4.9,0,0,0,2.082.428,4.191,4.191,0,0,0,3.388-1.255,5.159,5.159,0,0,0,1.056-3.428v-.478h-4.025v-.956h5.22v1.3a8.245,8.245,0,0,1-.319,2.351,4.987,4.987,0,0,1-1,1.863,4.517,4.517,0,0,1-1.743,1.226,6.791,6.791,0,0,1-2.581.438,6.408,6.408,0,0,1-2.581-.5,5.364,5.364,0,0,1-1.953-1.435,6.58,6.58,0,0,1-1.246-2.262,9.592,9.592,0,0,1-.438-3.019,9.292,9.292,0,0,1,.438-2.949,6.3,6.3,0,0,1,1.255-2.232,5.464,5.464,0,0,1,1.963-1.4,6.522,6.522,0,0,1,2.581-.488,6.169,6.169,0,0,1,1.963.309,5.9,5.9,0,0,1,1.674.867,5.462,5.462,0,0,1,1.265,1.325,4.807,4.807,0,0,1,.717,1.684h-1.2a3.557,3.557,0,0,0-.608-1.265,4.633,4.633,0,0,0-1.016-.986,4.709,4.709,0,0,0-1.3-.648A4.892,4.892,0,0,0-1070.858,116.2Z" transform="translate(1077.095 -115.144)" fill="#30bfc7" stroke="#30bfc7" stroke-miterlimit="10" stroke-width="1"/>
      <path id="Path_43" data-name="Path 43" d="M-1029.482,129.6l-3.647-6.437h-3.547V129.6h-1.2V115.652h5.081a5.11,5.11,0,0,1,3.218.9,3.372,3.372,0,0,1,1.146,2.83,3.566,3.566,0,0,1-.887,2.541,3.849,3.849,0,0,1-2.66,1.066l3.786,6.616Zm-7.194-7.433h3.687a4.166,4.166,0,0,0,2.521-.648,2.5,2.5,0,0,0,.867-2.142,2.416,2.416,0,0,0-.867-2.112,4.32,4.32,0,0,0-2.521-.618h-3.687Z" transform="translate(1051.72 -115.473)" fill="#30bfc7" stroke="#30bfc7" stroke-miterlimit="10" stroke-width="1"/>
      <path id="Path_44" data-name="Path 44" d="M-999.5,115.2a6.485,6.485,0,0,1,2.59.5,5.4,5.4,0,0,1,1.963,1.425,6.378,6.378,0,0,1,1.235,2.242,9.506,9.506,0,0,1,.428,2.949,9.74,9.74,0,0,1-.428,3,6.367,6.367,0,0,1-1.235,2.252,5.306,5.306,0,0,1-1.963,1.415,6.6,6.6,0,0,1-2.59.488,6.722,6.722,0,0,1-2.62-.488,5.288,5.288,0,0,1-1.973-1.415,6.363,6.363,0,0,1-1.235-2.252,9.729,9.729,0,0,1-.428-3,9.495,9.495,0,0,1,.428-2.949,6.374,6.374,0,0,1,1.235-2.242,5.384,5.384,0,0,1,1.973-1.425A6.609,6.609,0,0,1-999.5,115.2Zm0,13.211a5.006,5.006,0,0,0,2.082-.418,4.262,4.262,0,0,0,1.574-1.216,5.67,5.67,0,0,0,1-1.933,8.682,8.682,0,0,0,.348-2.551,8.434,8.434,0,0,0-.348-2.5,5.571,5.571,0,0,0-1-1.913,4.311,4.311,0,0,0-1.574-1.206,5.006,5.006,0,0,0-2.082-.418,5.124,5.124,0,0,0-2.112.418,4.287,4.287,0,0,0-1.584,1.206,5.558,5.558,0,0,0-1,1.913,8.421,8.421,0,0,0-.349,2.5,8.669,8.669,0,0,0,.349,2.551,5.657,5.657,0,0,0,1,1.933,4.239,4.239,0,0,0,1.584,1.216A5.124,5.124,0,0,0-999.5,128.412Z" transform="translate(1030.945 -115.181)" fill="#30bfc7" stroke="#30bfc7" stroke-miterlimit="10" stroke-width="1"/>
      <path id="Path_45" data-name="Path 45" d="M-963.927,124.6a4.1,4.1,0,0,0,1.086,2.989,4.018,4.018,0,0,0,3.019,1.116,4.018,4.018,0,0,0,3.019-1.116,4.1,4.1,0,0,0,1.086-2.989v-8.947h1.176v9.027a5.678,5.678,0,0,1-.369,2.092,4.577,4.577,0,0,1-1.046,1.6,4.549,4.549,0,0,1-1.664,1.026,6.41,6.41,0,0,1-2.2.358,6.41,6.41,0,0,1-2.2-.358,4.651,4.651,0,0,1-1.674-1.026,4.5,4.5,0,0,1-1.056-1.6,5.663,5.663,0,0,1-.369-2.092v-9.027h1.2Z" transform="translate(1004.657 -115.473)" fill="#30bfc7" stroke="#30bfc7" stroke-miterlimit="10" stroke-width="1"/>
      <path id="Path_46" data-name="Path 46" d="M-924.178,115.652a5.031,5.031,0,0,1,3.188.9,3.385,3.385,0,0,1,1.136,2.83,3.479,3.479,0,0,1-1.136,2.85,4.91,4.91,0,0,1-3.208.936h-3.328V129.6h-1.2V115.652Zm-.219,6.516a4.221,4.221,0,0,0,2.521-.648,2.474,2.474,0,0,0,.887-2.142,2.389,2.389,0,0,0-.887-2.122,4.518,4.518,0,0,0-2.56-.608h-3.089v5.52Z" transform="translate(981.108 -115.473)" fill="#30bfc7" stroke="#30bfc7" stroke-miterlimit="10" stroke-width="1"/>
    </g>
  </g>
</svg>
