<svg xmlns="http://www.w3.org/2000/svg" xmlns:xlink="http://www.w3.org/1999/xlink" width="607.788" height="74.342" viewBox="0 0 607.788 74.342">
  <defs>
    <linearGradient id="linear-gradient" x1="0.854" y1="0.147" x2="0.147" y2="0.854" gradientUnits="objectBoundingBox">
      <stop offset="0" stop-color="#87c826"/>
      <stop offset="0.5" stop-color="#ffdb43"/>
      <stop offset="1" stop-color="#ff8206"/>
    </linearGradient>
  </defs>
  <g id="AW_logo_G-TECH_cr_1_" data-name="AW_logo_G-TECH_cr (1)" transform="translate(-186.542 -140.179)">
    <path id="Path_69" data-name="Path 69" d="M149.536,621.476a17.586,17.586,0,0,1-2.99,2.929,17.824,17.824,0,0,1-3.373,2.04,16.791,16.791,0,0,1-3.6,1.192,17.742,17.742,0,0,1-3.656.384,17.565,17.565,0,0,1-6.747-1.293,17.228,17.228,0,0,1-5.494-3.555,17,17,0,0,1-3.717-5.333,16.063,16.063,0,0,1-1.374-6.625,15.708,15.708,0,0,1,1.353-6.524,16.618,16.618,0,0,1,3.717-5.312,17.721,17.721,0,0,1,5.514-3.575,17.388,17.388,0,0,1,6.747-1.313,16.79,16.79,0,0,1,7.575,1.7,17.938,17.938,0,0,1,5.8,4.525l-4.237,4.323a10.951,10.951,0,0,0-4.075-3.535,11.644,11.644,0,0,0-5.04-1.071,11.03,11.03,0,0,0-4.318.849,11.262,11.262,0,0,0-3.53,2.323,10.853,10.853,0,0,0-2.379,3.434,10.187,10.187,0,0,0-.869,4.181,10.374,10.374,0,0,0,.869,4.222,11.084,11.084,0,0,0,10.216,6.646,10.526,10.526,0,0,0,4.111-.808,12.727,12.727,0,0,0,3.464-2.141v-3.111h-6.625V610.69h12.645v10.787Z" transform="translate(159 -433.905)" fill="#fff"/>
    <path id="Path_70" data-name="Path 70" d="M198.155,633.584H185.47V628.17h12.685Z" transform="translate(125.893 -450.578)" fill="#fff"/>
    <path id="Path_71" data-name="Path 71" d="M239.589,601.345h-8.928v26.7h-6.343v-26.7H215.39V595.77h24.2Z" transform="translate(111.082 -434.539)" fill="#fff"/>
    <path id="Path_72" data-name="Path 72" d="M292.641,628.049H271.31V595.77h21.331v5.171h-15.19v7.716h14.988v5.05H277.451V622.6h15.19Z" transform="translate(83.401 -434.539)" fill="#fff"/>
    <path id="Path_73" data-name="Path 73" d="M351.494,621.6a17.972,17.972,0,0,1-5.878,4.686A16.733,16.733,0,0,1,338,628.021a17.511,17.511,0,0,1-12.231-4.888,16.744,16.744,0,0,1-3.676-5.312,16.713,16.713,0,0,1,0-13.13,16.826,16.826,0,0,1,9.16-8.908A17.565,17.565,0,0,1,338,594.49a16.732,16.732,0,0,1,7.615,1.737,17.6,17.6,0,0,1,5.757,4.525L347.05,605.2a11.307,11.307,0,0,0-3.858-3.454,10.906,10.906,0,0,0-9.453-.444,11.361,11.361,0,0,0-3.495,2.343,11.144,11.144,0,0,0-2.363,3.434,10.185,10.185,0,0,0-.869,4.181,10,10,0,0,0,.869,4.141,11.142,11.142,0,0,0,2.363,3.434,11.359,11.359,0,0,0,3.495,2.343,10.548,10.548,0,0,0,4.262.869,10.226,10.226,0,0,0,5.292-1.353,12.069,12.069,0,0,0,3.838-3.575Z" transform="translate(58.928 -433.905)" fill="#fff"/>
    <path id="Path_74" data-name="Path 74" d="M413.359,628.049H407.1v-14.3H394.372v14.3H388.11V595.77h6.262v12.806H407.1V595.77h6.262Z" transform="translate(25.585 -434.539)" fill="#fff"/>
    <path id="Path_75" data-name="Path 75" d="M501.448,624.341l-3.878,3.878-2.747-3.111A17.163,17.163,0,0,1,493,626.5a9.629,9.629,0,0,1-1.919.97,10.95,10.95,0,0,1-2.323.566,21.741,21.741,0,0,1-2.99.182,10.686,10.686,0,0,1-4.1-.788,10.8,10.8,0,0,1-3.333-2.121,9.693,9.693,0,0,1-2.222-3.151,9.413,9.413,0,0,1-.808-3.878,7.615,7.615,0,0,1,1.515-4.666,15.971,15.971,0,0,1,4.424-3.858,18.411,18.411,0,0,1-2.585-3.737,7.067,7.067,0,0,1-.768-3.05,7.366,7.366,0,0,1,.707-3.212,7.964,7.964,0,0,1,1.939-2.565,8.944,8.944,0,0,1,2.889-1.7,10.271,10.271,0,0,1,3.555-.606,10.094,10.094,0,0,1,3.616.646,8.9,8.9,0,0,1,2.909,1.8,8.448,8.448,0,0,1,1.939,2.687,7.95,7.95,0,0,1,.707,3.353,6.159,6.159,0,0,1-1.535,4.161,19.124,19.124,0,0,1-4.767,3.676l4.484,5.171a5.833,5.833,0,0,0,.364-1.192c.081-.419.146-.828.2-1.232h5.575a18.392,18.392,0,0,1-.788,3.9,15.827,15.827,0,0,1-1.313,3.05Zm-10.342-3.474-6.464-7.272a6.988,6.988,0,0,0-2.363,2.141,4.709,4.709,0,0,0-.707,2.545,3.819,3.819,0,0,0,.364,1.656,4.615,4.615,0,0,0,.97,1.353,4.609,4.609,0,0,0,3.192,1.273,10.138,10.138,0,0,0,2.4-.283A7.294,7.294,0,0,0,491.106,620.867Zm-.364-17.978a2.608,2.608,0,0,0-1.071-2.161,3.949,3.949,0,0,0-2.484-.828,3.822,3.822,0,0,0-2.545.889,2.785,2.785,0,0,0-1.05,2.222,2.916,2.916,0,0,0,.323,1.333,7.288,7.288,0,0,0,1.131,1.535l1.414,1.495a11.857,11.857,0,0,0,3.05-1.9A3.344,3.344,0,0,0,490.742,602.889Z" transform="translate(-17.581 -434.103)" fill="#fff"/>
    <path id="Path_76" data-name="Path 76" d="M590.1,628.009h-6.868l-2.99-6.464H564.568l-3.03,6.464H554.67l15.271-32.319h4.888L590.1,628.009Zm-12.322-11.675L572.405,604.7l-5.454,11.635Z" transform="translate(-56.865 -434.499)" fill="#fff"/>
    <path id="Path_77" data-name="Path 77" d="M653.889,606.6a10.657,10.657,0,0,1-.874,4.3,10.965,10.965,0,0,1-2.369,3.474,10.714,10.714,0,0,1-3.525,2.3,11.258,11.258,0,0,1-4.292.828h-5.348v10.544H631.22V595.77h11.615a11.282,11.282,0,0,1,4.292.828,10.749,10.749,0,0,1,5.888,5.717,10.5,10.5,0,0,1,.869,4.282Zm-6.262-.081a5.96,5.96,0,0,0-1.737-4.242,6.229,6.229,0,0,0-1.9-1.293,5.708,5.708,0,0,0-2.343-.485h-4.161v12.2h4.161a5.489,5.489,0,0,0,2.343-.505,6.23,6.23,0,0,0,1.9-1.353,6.309,6.309,0,0,0,1.273-1.959A6.1,6.1,0,0,0,647.627,606.516Z" transform="translate(-94.757 -434.539)" fill="#fff"/>
    <path id="Path_78" data-name="Path 78" d="M706.689,606.6a10.661,10.661,0,0,1-.874,4.3,10.965,10.965,0,0,1-2.369,3.474,10.714,10.714,0,0,1-3.525,2.3,11.259,11.259,0,0,1-4.292.828h-5.348v10.544H684.02V595.77h11.615a11.282,11.282,0,0,1,4.292.828,10.749,10.749,0,0,1,5.888,5.717,10.506,10.506,0,0,1,.869,4.282Zm-6.262-.081a5.96,5.96,0,0,0-1.737-4.242,6.229,6.229,0,0,0-1.9-1.293,5.707,5.707,0,0,0-2.343-.485h-4.161v12.2h4.161a5.488,5.488,0,0,0,2.343-.505,6.23,6.23,0,0,0,1.9-1.353,6.3,6.3,0,0,0,1.273-1.959A6.107,6.107,0,0,0,700.427,606.516Z" transform="translate(-120.895 -434.539)" fill="#fff"/>
    <path id="Path_79" data-name="Path 79" d="M758.676,628.049H736.82V595.77H743.2v26.219h15.473Z" transform="translate(-147.03 -434.539)" fill="#fff"/>
    <path id="Path_80" data-name="Path 80" d="M793.562,628.049H787.3V595.77h6.262Z" transform="translate(-172.02 -434.539)" fill="#fff"/>
    <path id="Path_81" data-name="Path 81" d="M840.044,621.6a17.972,17.972,0,0,1-5.878,4.686,16.733,16.733,0,0,1-7.615,1.737,17.511,17.511,0,0,1-12.231-4.888,16.746,16.746,0,0,1-3.676-5.312,16.712,16.712,0,0,1,0-13.13,16.827,16.827,0,0,1,9.161-8.908,17.565,17.565,0,0,1,6.747-1.293,16.732,16.732,0,0,1,7.615,1.737,17.6,17.6,0,0,1,5.757,4.525L835.6,605.2a11.3,11.3,0,0,0-3.858-3.454,10.906,10.906,0,0,0-9.453-.444,11.359,11.359,0,0,0-3.495,2.343,11.146,11.146,0,0,0-2.363,3.434,10.187,10.187,0,0,0-.869,4.181,10,10,0,0,0,.869,4.141,11.145,11.145,0,0,0,2.363,3.434,11.357,11.357,0,0,0,3.495,2.343,10.549,10.549,0,0,0,4.262.869,10.226,10.226,0,0,0,5.292-1.353,12.071,12.071,0,0,0,3.838-3.575l4.363,4.484Z" transform="translate(-182.909 -433.905)" fill="#fff"/>
    <path id="Path_82" data-name="Path 82" d="M906.49,628.009h-6.868l-2.99-6.464H880.958l-3.03,6.464H871.06l15.271-32.319h4.888Zm-12.322-11.675L888.795,604.7l-5.454,11.635Z" transform="translate(-213.482 -434.499)" fill="#fff"/>
    <path id="Path_83" data-name="Path 83" d="M957.419,601.345h-8.928v26.7h-6.343v-26.7H933.22V595.77h24.2Z" transform="translate(-244.252 -434.539)" fill="#fff"/>
    <path id="Path_84" data-name="Path 84" d="M995.4,628.049H989.14V595.77H995.4Z" transform="translate(-271.933 -434.539)" fill="#fff"/>
    <path id="Path_85" data-name="Path 85" d="M1045.4,611.256a16.008,16.008,0,0,1-1.353,6.545,16.68,16.68,0,0,1-3.692,5.333,17.591,17.591,0,0,1-5.449,3.575,17.373,17.373,0,0,1-13.251,0,17.511,17.511,0,0,1-5.469-3.575,16.709,16.709,0,0,1-3.691-5.312,16.649,16.649,0,0,1,0-13.15,16.761,16.761,0,0,1,3.691-5.333,17.4,17.4,0,0,1,12.1-4.848,17.017,17.017,0,0,1,6.615,1.293,17.241,17.241,0,0,1,5.449,3.575,16.906,16.906,0,0,1,3.692,5.333,15.982,15.982,0,0,1,1.353,6.565Zm-6.262,0a10.423,10.423,0,0,0-.848-4.181,10.96,10.96,0,0,0-2.328-3.434,11.257,11.257,0,0,0-3.459-2.343,10.357,10.357,0,0,0-4.207-.869,10.571,10.571,0,0,0-4.252.869,11.2,11.2,0,0,0-3.459,2.343,10.963,10.963,0,0,0-2.328,3.434,10.678,10.678,0,0,0,0,8.342,10.937,10.937,0,0,0,2.328,3.454,11.2,11.2,0,0,0,3.459,2.343,10.448,10.448,0,0,0,4.252.869,10.219,10.219,0,0,0,4.207-.869,11.2,11.2,0,0,0,3.459-2.343,10.934,10.934,0,0,0,2.328-3.454A10.45,10.45,0,0,0,1039.136,611.256Z" transform="translate(-282.822 -433.906)" fill="#fff"/>
    <path id="Path_86" data-name="Path 86" d="M1115.525,628.009h-6.14L1094.8,605.345v22.664h-6.141V595.69h7.03l13.7,21.088V595.69h6.14Z" transform="translate(-321.195 -434.499)" fill="#fff"/>
    <path id="Path_87" data-name="Path 87" d="M523.984,173.591a1.431,1.431,0,0,0-1.428-1.282H490.765a1.436,1.436,0,0,0-1.015.421l-7.217,7.217a1.436,1.436,0,0,0,1.015,2.451h14.58a12.218,12.218,0,1,1-2.562-13.749,1.436,1.436,0,0,0,2.027,0l.825-.825,0,0,3.391-3.391,0,0,.888-.888a1.444,1.444,0,0,0,0-2.035,22.3,22.3,0,1,0,6.035,20.888h4.882a27.073,27.073,0,1,1-17.456-30.538v0a27.516,27.516,0,0,1,3.785,1.694l.168.092c.139.078.277.156.414.236a27.286,27.286,0,0,1,4.661,3.4l0,0q.452.412.886.839a1.437,1.437,0,0,0,2.029,0l.841-.841h0l3.383-3.383.88-.88a1.441,1.441,0,0,0-.01-2.041,36.917,36.917,0,0,0-7.695-5.865c-.148-.084-.3-.166-.443-.248-.131-.072-.261-.146-.392-.217q-.458-.246-.923-.482s-.006,0-.01-.006a37.173,37.173,0,1,0,20.434,33.192,37.382,37.382,0,0,0-.191-3.762ZM487,211.871a34.517,34.517,0,1,1,11.673-67.006v.006a34.6,34.6,0,0,1,4.792,2.144l.232.129c.166.092.332.185.5.281.183.1.363.211.544.32l.094.057a34.7,34.7,0,0,1,5.613,4.228l0,0h0l0,0-3.377,3.377a29.624,29.624,0,0,0-5.317-3.871c-.092-.053-.187-.107-.279-.158l-.322-.178a29.738,29.738,0,1,0,15.314,30.173,1.436,1.436,0,0,0-1.426-1.627h-7.307a1.428,1.428,0,0,0-1.409,1.167,19.653,19.653,0,1,1-6.4-18.354l-3.391,3.391a14.865,14.865,0,1,0,4.722,15.652,1.439,1.439,0,0,0-1.374-1.854H486.487l4.78-4.78h30.164q.083,1.185.084,2.39A34.517,34.517,0,0,1,487,211.875Z" transform="translate(-263.288)" fill="url(#linear-gradient)"/>
  </g>
</svg>
